<?xml version="1.0" encoding="utf-8"?>
<!-- Generator: Adobe Illustrator 22.0.1, SVG Export Plug-In . SVG Version: 6.00 Build 0)  -->
<svg version="1.1" id="Layer_1" xmlns="http://www.w3.org/2000/svg" xmlns:xlink="http://www.w3.org/1999/xlink" x="0px" y="0px"
	 viewBox="0 0 128.3 94.7" style="enable-background:new 0 0 128.3 94.7;" xml:space="preserve">
<style type="text/css">
	.st0{clip-path:url(#SVGID_2_);}
	.st1{clip-path:url(#SVGID_4_);}
	.st2{clip-path:url(#SVGID_6_);}
	.st3{fill:#DD002D;}
	.st4{fill:#0072DD;}
	.st5{fill:#00AC36;}
	.st6{fill:#FCDA00;}
</style>
<g>
	<path d="M31.8,4.9l3,8.1h-6.1L31.8,4.9z M30.6,1.6l-7.5,18.6h3.1l1.9-5.1h7.2l2,5.1h3.1L33,1.6H30.6z"/>
	<path d="M31.8,29.3l-3.1,8.1h6.1L31.8,29.3z M23.1,44.6L30.6,26H33l7.5,18.6h-3.1l-2-5.1h-7.2l-1.9,5.1H23.1z"/>
	<polygon points="39.4,50.5 39.4,69.1 36.5,69.1 36.5,60.9 27.1,60.9 27.1,69.1 24.1,69.1 24.1,50.5 27.1,50.5 27.1,58.3 36.5,58.3 
		36.5,50.5 	"/>
	<polygon points="45.4,1.6 45.4,20.2 48.3,20.2 48.3,7.1 58.9,20.2 61.3,20.2 61.3,1.6 58.4,1.6 58.4,15 47.7,1.6 	"/>
	<g>
		<defs>
			<rect id="SVGID_1_" x="2.4" y="1.4" width="123.6" height="91.8"/>
		</defs>
		<clipPath id="SVGID_2_">
			<use xlink:href="#SVGID_1_"  style="overflow:visible;"/>
		</clipPath>
		<path class="st0" d="M50.1,35.6h5.1c0.4,0,0.8-0.1,1.1-0.3c0.3-0.2,0.6-0.4,0.9-0.8c0.2-0.3,0.4-0.7,0.6-1.1
			C58,33,58,32.6,58,32.1c0-0.5-0.1-0.9-0.2-1.3c-0.2-0.4-0.4-0.8-0.7-1.1c-0.3-0.3-0.6-0.6-0.9-0.7c-0.4-0.2-0.7-0.3-1.1-0.3h-5
			V35.6z M47.2,44.6V26h8.1c0.8,0,1.6,0.2,2.3,0.5c0.7,0.4,1.3,0.8,1.8,1.4s0.9,1.2,1.2,1.9c0.3,0.7,0.4,1.5,0.4,2.2
			c0,0.6-0.1,1.2-0.3,1.8c-0.2,0.6-0.4,1.1-0.7,1.6c-0.3,0.5-0.7,0.9-1.2,1.3c-0.5,0.4-1,0.6-1.5,0.8l4.4,7.1h-3.3l-4.1-6.5h-4.3
			v6.5H47.2z"/>
		<path class="st0" d="M48.1,59.8c0,0.9,0.1,1.7,0.4,2.5c0.3,0.8,0.7,1.5,1.2,2.2c0.5,0.6,1.1,1.1,1.8,1.5c0.7,0.4,1.5,0.6,2.4,0.6
			c0.9,0,1.7-0.2,2.5-0.6c0.7-0.4,1.3-0.9,1.8-1.6c0.5-0.6,0.9-1.4,1.1-2.2s0.4-1.6,0.4-2.5c0-0.9-0.1-1.7-0.4-2.6
			c-0.3-0.8-0.7-1.5-1.2-2.2c-0.5-0.6-1.1-1.1-1.8-1.5c-0.7-0.4-1.5-0.6-2.4-0.6c-0.9,0-1.7,0.2-2.5,0.6c-0.7,0.4-1.3,0.9-1.8,1.5
			c-0.5,0.6-0.9,1.4-1.1,2.2C48.2,58.1,48.1,58.9,48.1,59.8 M53.9,69.2c-1.3,0-2.5-0.3-3.6-0.8c-1.1-0.5-2-1.2-2.8-2.1
			c-0.8-0.9-1.4-1.9-1.8-3c-0.4-1.1-0.6-2.3-0.6-3.5c0-1.2,0.2-2.4,0.7-3.6c0.4-1.1,1.1-2.1,1.8-3c0.8-0.9,1.7-1.6,2.8-2.1
			c1.1-0.5,2.3-0.8,3.5-0.8c1.3,0,2.5,0.3,3.6,0.8c1.1,0.6,2,1.3,2.8,2.2c0.8,0.9,1.4,1.9,1.8,3c0.4,1.1,0.6,2.3,0.6,3.4
			c0,1.2-0.2,2.4-0.7,3.6c-0.4,1.1-1.1,2.1-1.8,3c-0.8,0.9-1.7,1.6-2.8,2.1C56.3,69,55.1,69.2,53.9,69.2"/>
		<path class="st0" d="M80.7,17.9c-1.5,1.6-3.3,2.4-5.3,2.4c-1.2,0-2.3-0.3-3.4-0.8c-1.1-0.5-2-1.2-2.8-2.1c-0.8-0.9-1.4-1.9-1.8-3
			c-0.4-1.1-0.7-2.3-0.7-3.6c0-1.3,0.2-2.5,0.7-3.6c0.4-1.1,1.1-2.1,1.8-3c0.8-0.9,1.7-1.5,2.8-2c1.1-0.5,2.2-0.7,3.5-0.7
			c1.7,0,3.2,0.4,4.4,1.1c1.2,0.7,2.1,1.7,2.7,2.9l-2.3,1.6c-0.5-1-1.2-1.8-2.1-2.3c-0.9-0.5-1.8-0.8-2.9-0.8
			c-0.9,0-1.6,0.2-2.3,0.6c-0.7,0.4-1.3,0.9-1.8,1.5c-0.5,0.6-0.9,1.3-1.2,2.2c-0.3,0.8-0.4,1.7-0.4,2.6c0,0.9,0.1,1.8,0.4,2.6
			c0.3,0.8,0.7,1.5,1.2,2.2c0.5,0.6,1.2,1.1,1.9,1.5c0.7,0.4,1.5,0.5,2.3,0.5c1.9,0,3.6-0.9,5.1-2.8v-2h-3.9v-2.2h6.4v9.4h-2.5V17.9
			z"/>
	</g>
	<polygon points="82.6,28.6 76.4,28.6 76.4,44.7 73.5,44.7 73.5,28.6 67.3,28.6 67.3,26 82.6,26 	"/>
	<polygon points="82.6,53.1 76.4,53.1 76.4,69.1 73.5,69.1 73.5,53.1 67.3,53.1 67.3,50.5 82.6,50.5 	"/>
	<path d="M96.5,4.9l3,8.1h-6.1L96.5,4.9z M95.3,1.6l-7.5,18.6H91l1.9-5.1h7.2l2,5.1h3.1L97.7,1.6H95.3z"/>
	<g>
		<defs>
			<rect id="SVGID_3_" x="2.4" y="1.4" width="123.6" height="91.8"/>
		</defs>
		<clipPath id="SVGID_4_">
			<use xlink:href="#SVGID_3_"  style="overflow:visible;"/>
		</clipPath>
		<path class="st1" d="M101.7,30.4c-0.2-0.2-0.4-0.4-0.8-0.6c-0.3-0.2-0.7-0.4-1.2-0.6c-0.4-0.2-0.9-0.3-1.5-0.5
			c-0.5-0.1-1.1-0.2-1.7-0.2c-1.2,0-2,0.2-2.6,0.7c-0.6,0.5-0.9,1.1-0.9,1.9c0,0.5,0.1,0.8,0.3,1.1c0.2,0.3,0.5,0.5,0.9,0.7
			c0.4,0.2,0.9,0.4,1.4,0.6c0.6,0.2,1.2,0.3,2,0.5c0.9,0.2,1.7,0.5,2.5,0.8c0.8,0.3,1.4,0.6,1.9,1c0.5,0.4,0.9,0.9,1.2,1.5
			c0.3,0.6,0.4,1.3,0.4,2.1c0,1-0.2,1.8-0.6,2.5c-0.4,0.7-0.9,1.2-1.5,1.7c-0.6,0.4-1.3,0.7-2.2,0.9c-0.8,0.2-1.7,0.3-2.6,0.3
			c-1.4,0-2.8-0.2-4.1-0.6c-1.3-0.4-2.5-1.1-3.6-1.9l1.4-2.5c0.2,0.2,0.5,0.5,1,0.8c0.4,0.3,0.9,0.5,1.5,0.8s1.2,0.4,1.9,0.6
			s1.4,0.2,2.1,0.2c1.1,0,2-0.2,2.6-0.6c0.6-0.4,0.9-1,0.9-1.8c0-0.5-0.1-0.9-0.3-1.2c-0.2-0.3-0.6-0.6-1-0.8
			c-0.4-0.2-1-0.4-1.6-0.6c-0.6-0.2-1.3-0.4-2.2-0.6c-0.9-0.2-1.7-0.5-2.4-0.8s-1.3-0.6-1.7-1c-0.5-0.4-0.8-0.8-1-1.4
			c-0.2-0.5-0.4-1.1-0.4-1.9c0-0.9,0.2-1.7,0.5-2.4c0.3-0.7,0.8-1.3,1.4-1.8c0.6-0.5,1.3-0.8,2.1-1.1c0.8-0.2,1.7-0.4,2.6-0.4
			c1.3,0,2.5,0.2,3.5,0.6c1.1,0.4,2,0.9,2.8,1.5L101.7,30.4z"/>
	</g>
	<polygon points="102.9,66.5 102.9,69.1 90.1,69.1 90.1,50.5 102.7,50.5 102.7,53.1 93.1,53.1 93.1,58.4 101.4,58.4 101.4,60.8 
		93.1,60.8 93.1,66.5 	"/>
	<g>
		<defs>
			<rect id="SVGID_5_" x="2.4" y="1.4" width="123.6" height="91.8"/>
		</defs>
		<clipPath id="SVGID_6_">
			<use xlink:href="#SVGID_5_"  style="overflow:visible;"/>
		</clipPath>
		<path class="st2" d="M122.9,10.9c0-1-0.1-1.9-0.4-2.7c-0.3-0.8-0.7-1.5-1.2-2.1c-0.5-0.6-1.2-1-1.9-1.4c-0.8-0.3-1.6-0.5-2.6-0.5
			h-3.7v13.4h3.7c1,0,1.8-0.2,2.6-0.5c0.8-0.3,1.4-0.8,1.9-1.4c0.5-0.6,0.9-1.3,1.2-2.1C122.8,12.7,122.9,11.8,122.9,10.9
			 M110.2,20.2V1.6h6.6c1.5,0,2.8,0.2,3.9,0.7c1.1,0.5,2.1,1.2,2.8,2c0.8,0.8,1.3,1.8,1.7,3c0.4,1.1,0.6,2.3,0.6,3.6
			c0,1.4-0.2,2.7-0.6,3.8c-0.4,1.1-1,2.1-1.8,2.9c-0.8,0.8-1.7,1.4-2.9,1.9c-1.1,0.4-2.4,0.7-3.8,0.7H110.2z"/>
	</g>
	<polygon points="111.6,69.1 111.6,50.5 114.6,50.5 114.6,66.5 124.5,66.5 124.5,69.1 	"/>
	<rect x="110.2" y="26" class="st3" width="15.7" height="18.6"/>
	<rect x="2.4" y="1.6" class="st4" width="15.7" height="18.6"/>
	<rect x="2.4" y="50.5" class="st5" width="15.7" height="18.6"/>
	<rect x="88.6" y="74.7" class="st6" width="15.7" height="18.6"/>
</g>
</svg>
